<?xml version="1.0" encoding="UTF-8" standalone="no"?>
<!-- Created with Inkscape (http://www.inkscape.org/) -->

<svg
   width="400"
   height="200"
   viewBox="0 0 105.83333 52.916665"
   version="1.1"
   id="svg122"
   inkscape:version="1.1.2 (b8e25be833, 2022-02-05)"
   sodipodi:docname="AHSF.svg"
   xmlns:inkscape="http://www.inkscape.org/namespaces/inkscape"
   xmlns:sodipodi="http://sodipodi.sourceforge.net/DTD/sodipodi-0.dtd"
   xmlns="http://www.w3.org/2000/svg"
   xmlns:svg="http://www.w3.org/2000/svg">
  <sodipodi:namedview
     id="namedview124"
     pagecolor="#ffffff"
     bordercolor="#999999"
     borderopacity="1"
     inkscape:pageshadow="0"
     inkscape:pageopacity="0"
     inkscape:pagecheckerboard="0"
     inkscape:document-units="mm"
     showgrid="false"
     units="px"
     inkscape:zoom="0.69664703"
     inkscape:cx="261.25138"
     inkscape:cy="429.1987"
     inkscape:window-width="1920"
     inkscape:window-height="986"
     inkscape:window-x="-11"
     inkscape:window-y="-11"
     inkscape:window-maximized="1"
     inkscape:current-layer="layer1" />
  <defs
     id="defs119" />
  <g
     inkscape:label="Capa 1"
     inkscape:groupmode="layer"
     id="layer1">
    <g
       id="g218"
       transform="matrix(0.07605777,0,0,0.07605777,-19.083955,-14.070193)">
      <path
         class="st0"
         d="m 818.9,628.8 c -1.6,-4 -2.8,-6.3 -4.1,-9.1 -1.3,-2.7 -2.4,-5.2 -3.5,-7.5 -24.9,-53.1 -52.4,-111.8 -81.5,-173.9 -7.3,-15.5 -14.7,-31.2 -22.1,-47.1 l -2.8,-6 c -1,-2.1 -2.5,-4.7 -3.8,-7 -2.4,-4.9 -6.2,-9.1 -9.5,-13.5 -7.6,-8.2 -16.8,-14.9 -27,-19.6 -20.6,-8.8 -44.7,-9.2 -65.4,0.2 -10.4,4.4 -19.8,11.6 -27.2,20.2 -1.8,2.2 -3.8,4.2 -5.3,6.7 l -4.5,7.2 c -2.6,4.5 -4.4,8.2 -6.6,12.4 -4.2,8.1 -8.5,16.2 -12.8,24.3 l -5.5,10.4 -1.2,2.5 -4.9,9.9 c -3.3,6.6 -6.6,13.1 -9.8,19.6 -6.5,13 -12.9,25.7 -18.9,37.6 -5.3,10.6 -12,23.1 -16.1,33.5 -3.4,8.7 8.1,-15.8 9.2,-18.3 9.2,-20.1 22.5,-42.1 31.6,-59.1 0.8,-1.4 4.2,-9 4.6,-9.1 0.2,-0.1 -1.9,4.5 -4.2,9.5 -2.4,4.9 -4.9,10.3 -5.5,11.6 -10.9,21.6 -24.1,45.9 -33.3,67.6 -3,7.1 -5,9.1 -6.7,13.3 9.1,-22.7 -6,10.9 0.3,1.2 2.6,-4 5.2,-8.6 7.8,-13.5 1,-1.4 2.3,-3.3 3.5,-5.1 0.3,0.2 2.2,-2.8 4.3,-6.1 0.6,-0.9 1.1,-1.8 1.7,-2.7 -1.2,2.4 -2.4,4.6 -3.3,6.7 -1.7,2.6 -3.2,5 -3.9,6.5 -1.6,3.7 -3.7,7.9 -5.8,11.5 -0.7,1.3 -4.7,7.4 -4.5,7.9 0.1,0.3 7.2,-11.5 8,-12.7 3.6,-5.7 -2.7,5.9 -4.3,8.9 0.5,-0.7 1.5,-1.8 2.5,-3 -2.9,5.5 -5.5,10.9 -7.1,15.6 -1.3,3.9 0.5,0.4 1.5,-1.3 3.9,-6.4 7.2,-13.2 10.4,-20 1.7,-2.9 7.9,-13.8 6.3,-8.5 -0.1,0.2 -0.2,0.3 -0.2,0.5 -3.9,6.7 -6.4,8.8 -8.3,14.4 -2.2,4.7 -7.3,11.6 -9.5,16.8 -3.4,7.7 5.1,-6.3 5.9,-7.7 2,-3.3 2.3,-2.8 2.1,-1.6 -3.1,6.6 -7,15 -4.6,11.5 -0.5,1 -0.9,1.9 0.4,0.5 4.6,-5.1 8.3,-14.9 11.6,-20.5 5.3,-8.9 -2.1,5.4 -1.2,4.8 1.9,-1.3 3.6,-5.4 5.6,-8.5 0.1,-0.2 0.2,-0.4 0.4,-0.6 -0.1,0.2 -0.2,0.4 -0.2,0.6 0.2,-0.3 0.4,-0.7 0.6,-1.2 2.9,-4.4 4.7,-7.9 7,-12.2 -1.1,2.4 -3.3,6.8 -5.3,11 -1.3,2.8 -2.6,5.6 -3.6,7.6 -0.1,0.2 -0.2,0.3 -0.2,0.5 -0.8,1.7 -1.3,2.8 -1.2,2.8 0.4,-0.2 2.3,-4 4,-7.6 0.7,-1.3 1.4,-2.5 2.2,-3.7 -0.5,0.7 -0.8,1.1 -0.7,0.7 0.7,-1.5 1.3,-2.8 1.6,-3.4 1.5,-3 3.1,-6 4.8,-9 2.2,-3.6 4.5,-7.2 6.3,-10.4 0.9,-1.6 4.3,-6.2 4,-7 -0.1,-0.3 -0.7,0.2 -1.4,1.1 4.7,-10 11.6,-26.5 13.9,-27.5 0,0.1 -3.7,7.8 -7.1,15 -3.3,7.1 -6.2,13.5 -4.6,11.5 -0.9,1.7 -2.1,3.9 -0.7,2.4 0.5,-0.5 2.2,-3 3.7,-5.6 0.7,-1.3 1.4,-2.6 1.8,-3.7 0.1,-0.3 0.2,-0.5 0.3,-0.8 0.1,-0.2 0,-0.2 0.4,-1 5.3,-9.4 8.4,-18.6 13.7,-27.7 4.8,-8.2 9.6,-17.1 14.3,-26.5 1.2,-2.3 2.3,-4.7 3.5,-7.1 5.2,-10 10.4,-20.1 15.7,-30.2 3.1,-5.8 6.2,-12.2 9.3,-17.7 2.9,-5.1 6.4,-9.9 10.7,-13.8 8.5,-8 19.6,-13.1 31.4,-14.5 11.8,-1.2 24,1.3 34.4,7.1 10.6,5.8 18.2,15.2 23.5,26.6 11.6,24.6 23.2,49.2 34.7,73.6 22.9,48.8 45.2,96.8 66.2,142.9 2.5,5.5 5,11 7.5,16.4 2.5,5.6 4.9,10.3 6.1,15.3 2.9,9.9 2.8,20.1 0.2,29.5 -5.3,18.8 -21.1,33.3 -38.6,38.6 -8.7,2.7 -17.8,3.1 -26.4,1.4 -8.5,-1.9 -16.5,-5.7 -23.2,-11.4 -3.2,-2.6 -7.1,-6.4 -10.7,-9.6 -3.7,-3.4 -7.3,-6.7 -10.9,-10.1 -7.3,-6.7 -14.5,-13.3 -21.7,-20 -5.6,-5.2 -17.6,-16.2 -27.6,-25.4 -0.4,-0.3 -0.7,-0.7 -1.1,-1 5.8,-4.8 10.5,-8.8 13.3,-11.1 l 17.1,-14.3 4.3,-3.6 4.8,-4.6 c 1.5,-1.6 3.2,-3.1 4.6,-4.8 l 4,-5.4 c 10.4,-14.5 15.5,-33 13.5,-50.8 0,-0.2 0,-0.3 0,-0.5 -1.9,-17.9 -9.7,-35.2 -22.6,-48.3 -13,-13 -31.1,-21 -49.2,-22.2 -15.6,-1.2 -32.2,2.1 -46.3,10.3 -2.1,1.2 -4.2,2.6 -6.2,4 -15.1,11.1 -25.8,27.5 -30.5,45.5 -4.6,18 -2.5,38 6.1,55 0.9,2.2 2.2,4.2 3.5,6.1 l 4,5.9 c 2.8,3.8 6.2,7 9.4,10.4 l 4.9,4.6 11.8,10.9 c 4.1,3.8 8.2,7.6 12.3,11.3 -7.9,6.6 -19.5,16.1 -25,20.7 -5.6,4.6 -11.1,9.2 -16.7,13.8 l -8.3,6.9 -4.1,3.4 -3.3,2.5 c -8.9,6.3 -18.7,9.4 -28.3,9 -9.6,-0.3 -18.9,-3.9 -26.4,-9.1 -5.4,-3.7 -18.1,-10.3 -18.1,-10.3 -5.2,-5.1 -4.4,-12.1 -7.8,-18.8 -0.6,-1.4 -0.5,2.2 0.5,6.2 0.9,4 2.7,8.1 2.7,8.1 -1,-0.1 -2.5,-3.7 -3.5,-7.8 -0.9,-4.1 -1.2,-8.5 -1.5,-10.5 -0.8,-3.5 -1,-7.7 -0.5,-11.4 0,-1.3 1.8,-7.6 1.6,-7.9 -0.2,-0.1 -1,2.8 -1.7,5.9 -0.6,3.2 -0.9,6.6 -0.9,7.2 -0.2,3 -0.3,1.6 -0.4,-1 0,-2.6 0.3,-6.4 0.7,-7.9 -0.7,2 -2.9,7.5 -3,9.4 0,0.1 0,1.2 -0.1,2.7 0.1,1.5 0.2,3.3 0.2,5 0.4,3.3 0.5,6 -0.7,3.2 -2.3,-5.4 -0.8,-11.9 -0.5,-16.6 0.1,-5.1 3.1,-12.8 4.9,-17.9 1.3,-3.8 0.1,-2.3 -1.3,0.6 -1.5,2.8 -2.9,7 -3.1,7.8 -1.8,6.7 -2.1,0.1 -1,-1.4 -1.5,2.2 -1.6,3.8 -1.7,5.7 -0.1,1.9 0.2,4.2 -0.2,8.1 -0.1,3.2 0,6.7 0.3,10.7 1.1,7.6 -1.8,1 -2.1,-0.9 -1.3,-5.4 -0.5,-11 0.5,-16.3 1.3,-5.3 3,-10.4 4.5,-15.5 0.1,-0.4 0.3,-1 0.5,-1.4 0.2,-0.7 0.2,-1 -0.6,0.1 0,0 0,0.1 -0.1,0.1 -4.5,5.7 -5.6,17 -5.8,23.6 -0.2,5.4 -0.4,3.9 -0.6,1.2 -0.2,-2.8 0.1,-6.8 -0.2,-6.3 -0.6,1 -0.9,2.8 -1.1,4.7 0,2 0,4.1 -0.1,6.1 0.1,10 1.8,15.5 6.7,26.3 0.7,1.6 2.4,4.7 3.8,7.4 1.5,2.6 2.7,4.9 2.1,4.8 -0.9,-0.1 -3.9,-5.6 -4.8,-7.5 -2.3,-3.8 -4.1,-8.8 -5.6,-13.5 -1.2,-4.9 -2.3,-9.5 -3.1,-12.8 -0.5,-1.9 -0.6,-1.4 -0.5,0 -0.3,-3.9 -0.3,-7.7 -0.1,-11.4 0.2,2 0.5,3.6 0.3,3.7 1.4,-1.3 0.3,-7.3 0.4,-10.8 0.2,-1.7 0.5,-3.4 0.7,-5.1 0.3,-1.6 0.6,-3.2 0.9,-4.7 0.6,-3.7 -1.2,0 -2.3,2.9 -0.6,1.4 -0.8,2.7 -0.7,2.6 0.1,-0.1 0.6,-1.5 2.2,-5.1 -1.2,2.7 -0.9,4.5 -2.3,9.3 -2,7.4 -2.2,16.1 -0.5,24.5 1.6,8.4 5.1,16.5 9.2,23.3 0.4,0.9 2.5,4.2 4.6,7.2 1.1,1.5 2.1,2.9 2.9,3.9 0.8,1 1.3,1.6 1.3,1.6 -0.4,0.1 -3.8,-4.4 -4.4,-5.2 -4,-5 -8.4,-11.2 -11.6,-18.4 -3.2,-7.2 -5.1,-15.3 -5.1,-22.9 0.1,-0.9 0,-6 0.7,-10 0.4,-4 1.2,-6.9 0.1,-3.9 -2.2,7.3 -1.8,17.3 -0.1,25.3 2.5,12.8 9,25.8 18.6,36.4 v 0 l 1.8,1.9 0.5,0.5 0.2,0.2 c 0.3,0.3 1.2,1.1 1.7,1.6 2.5,2.3 5.2,4.4 8,6.4 11.2,7.8 24.6,12.9 38.5,14 13.9,1.3 28.4,-2 40.5,-8.5 3.1,-1.5 5.9,-3.5 8.8,-5.3 2.6,-2 5.6,-4.3 7.7,-6.1 l 13,-11.1 c 13.3,-11.3 26.5,-22.5 39.6,-33.7 10.9,10 21.8,20 32.7,30 l 33.5,30.6 4.2,3.8 5.3,4.5 c 3.7,2.9 7.7,5.6 11.9,7.8 8.4,4.6 17.9,7.7 27.6,8.9 39.5,4.9 77.7,-21.2 88.6,-58.9 0.2,-1.1 4.4,-14 2.4,-29.8 -0.3,-7.1 -2.6,-15.4 -5.8,-22.6 z M 617.7,618 v 0 0 c -5.2,-4.8 -12.1,-11.2 -15.4,-14.2 l -4.9,-4.5 -5.9,-5.5 c -1.8,-1.7 -3.7,-3.4 -5.4,-5 l -4.3,-4.6 c -5.2,-6.4 -9.7,-13.7 -11.2,-22 -1.8,-8.1 -1.7,-16.8 0.3,-25.1 4.3,-16.7 17,-31.5 34,-37 13.3,-4.2 29.4,-3.1 42.2,3.8 6.4,3.7 11.9,8.9 16.5,15 4.4,6.3 7.3,13.8 8.7,21.6 1.1,5.5 0.9,11.3 -0.1,16.9 -0.4,2.3 -1,4.6 -1.7,6.9 -2.5,7.7 -6.9,14.9 -13.5,20.6 l -2.3,2.3 -3.2,2.6 c -2.1,1.8 -4.2,3.5 -6.4,5.3 -4.3,3.6 -8.6,7.2 -13,10.8 -4.6,4 -9.6,8.1 -14.4,12.1 z"
         id="path166"
         style="fill:#fb5b61;fill-opacity:1" />
      <path
         d="m 882.9,495.5 c 8.7,0 14.9,-4.1 18.1,-8.9 v 8 h 14 V 440 h -13.9 v 7.8 c -3.2,-4.5 -9.3,-8.7 -18,-8.7 -13.9,0 -24.9,10.9 -24.9,28 -0.1,17 10.9,28.4 24.7,28.4 z m 3.7,-44.3 c 7.6,0 14.5,5.7 14.5,16.1 0,10.4 -6.9,16.1 -14.5,16.1 -7.4,0 -14.4,-5.9 -14.4,-16.3 0,-10.4 7,-15.9 14.4,-15.9 z"
         id="path168" />
      <rect
         x="928.5"
         y="440"
         width="13.8"
         height="54.599998"
         id="rect170" />
      <path
         d="m 935.4,433.5 c 4.8,0 8.5,-3.6 8.5,-8.1 0,-4.5 -3.7,-8.1 -8.5,-8.1 -4.9,0 -8.5,3.6 -8.5,8.1 0.1,4.5 3.6,8.1 8.5,8.1 z"
         id="path172" />
      <path
         d="m 986.4,453.7 v -14.5 c -7.6,0 -13.3,3.7 -16.8,9.3 V 440 h -13.8 v 54.6 h 13.8 v -27.2 c 0,-10.6 4.9,-13.7 13.1,-13.7 z"
         id="path174" />
      <path
         d="m 1009.5,486.8 c 3.3,4.7 9.5,8.7 18,8.7 14,0 24.9,-11.3 24.9,-28.4 0,-17.1 -10.9,-28 -24.9,-28 -8.3,0 -14.7,3.8 -18,8.9 v -26.3 h -13.8 v 72.9 h 13.8 z m 14.3,-35.6 c 7.5,0 14.5,5.5 14.5,15.9 0,10.4 -7,16.3 -14.5,16.3 -7.4,0 -14.4,-5.7 -14.4,-16.1 0.1,-10.3 7.1,-16.1 14.4,-16.1 z"
         id="path176" />
      <path
         d="m 1100.7,464.5 v 30.2 h 13.8 v -32 c 0,-15.1 -9.1,-23.4 -21.8,-23.4 -7,0 -12.9,3 -16.5,7.6 V 440 h -13.8 v 54.6 h 13.8 v -30.2 c 0,-8.8 4.8,-13.5 12.3,-13.5 7.4,0 12.2,4.8 12.2,13.6 z"
         id="path178" />
      <path
         d="m 1184.4,467.1 c 0,-17 -10.9,-28 -24.9,-28 -8.3,0 -14.7,3.8 -18,8.9 v -26.3 h -13.8 v 72.9 h 13.8 v -7.8 c 3.3,4.7 9.5,8.7 18,8.7 13.9,0 24.9,-11.3 24.9,-28.4 z m -28.6,16.3 c -7.4,0 -14.4,-5.7 -14.4,-16.1 0,-10.4 7,-16.1 14.4,-16.1 7.5,0 14.5,5.5 14.5,15.9 0,10.4 -7,16.3 -14.5,16.3 z"
         id="path180" />
      <path
         d="m 1231.7,464.5 c 0,-8.8 4.8,-13.5 12.3,-13.5 7.3,0 12.1,4.7 12.1,13.5 v 30.2 h 13.8 v -32 c 0,-15.1 -9,-23.4 -21.3,-23.4 -7.3,0 -13.4,3 -17,7.6 v -25.1 h -13.8 v 72.9 h 13.8 z"
         id="path182" />
      <path
         d="m 1307.6,439.1 c -15.8,0 -28.1,10.9 -28.1,28.2 0,17.1 11.9,28.2 27.7,28.2 15.9,0 28.5,-11 28.5,-28.2 0,-17.2 -12.3,-28.2 -28.1,-28.2 z m -0.3,44.4 c -7.4,0 -13.7,-5.3 -13.7,-16.2 0,-10.9 6.6,-16.2 13.9,-16.2 7.3,0 14.1,5.2 14.1,16.2 -0.1,10.8 -7.1,16.2 -14.3,16.2 z"
         id="path184" />
      <path
         d="m 1366.7,484.7 c -5.5,0 -9.4,-3.2 -9.9,-7.3 h -13.9 c 0.6,10.1 10.1,18.1 23.9,18.1 13.3,0 21.5,-7.1 21.5,-16.5 -0.4,-20 -30.6,-13.8 -30.6,-23.8 0,-3.2 2.7,-5.2 7.8,-5.2 5.4,0 8.8,2.9 9.2,7.1 h 13.2 c -0.8,-10.8 -8.8,-18 -22,-18 -13.5,0 -21.6,7.3 -21.6,16.4 0,20 30.9,13.8 30.9,23.5 -0.2,3.2 -3.1,5.7 -8.5,5.7 z"
         id="path186" />
      <path
         d="m 1427.9,483 h -6.4 c -4.3,0 -5.8,-1.6 -5.8,-5.2 v -26.4 h 12.2 V 440 h -12.2 v -13.5 h -13.9 V 440 h -6.5 v 11.3 h 6.5 v 26.3 c 0,12.5 7,17 17.4,17 h 8.7 z"
         id="path188" />
      <path
         d="m 1458.6,484.7 c -5.5,0 -9.4,-3.2 -9.9,-7.3 h -13.9 c 0.6,10.1 10.1,18.1 23.9,18.1 13.3,0 21.5,-7.1 21.5,-16.5 -0.4,-20 -30.7,-13.8 -30.7,-23.8 0,-3.2 2.7,-5.2 7.8,-5.2 5.4,0 8.8,2.9 9.2,7.1 h 13.2 c -0.8,-10.8 -8.8,-18 -22,-18 -13.5,0 -21.6,7.3 -21.6,16.4 0,20 30.9,13.8 30.9,23.5 0,3.2 -3,5.7 -8.4,5.7 z"
         id="path190" />
      <path
         d="m 873.4,571.4 c 0,-3.2 2.7,-5.2 7.8,-5.2 5.4,0 8.8,2.9 9.2,7.1 h 13.2 c -0.8,-10.8 -8.8,-18 -22,-18 -13.5,0 -21.6,7.3 -21.6,16.4 0,20 30.9,13.8 30.9,23.5 0,3.2 -3,5.6 -8.4,5.6 -5.5,0 -9.4,-3.2 -9.9,-7.3 h -13.9 c 0.6,10.1 10.1,18.1 23.9,18.1 13.3,0 21.5,-7.1 21.5,-16.5 -0.5,-20 -30.7,-13.8 -30.7,-23.7 z"
         id="path192" />
      <path
         d="m 940,555.2 c -15.8,0 -28.1,10.9 -28.1,28.2 0,17.1 11.9,28.2 27.7,28.2 15.9,0 28.5,-11 28.5,-28.2 0,-17.2 -12.3,-28.2 -28.1,-28.2 z m -0.4,44.4 c -7.4,0 -13.7,-5.3 -13.7,-16.2 0,-10.9 6.6,-16.2 13.9,-16.2 7.3,0 14.1,5.2 14.1,16.2 0,10.9 -7,16.2 -14.3,16.2 z"
         id="path194" />
      <path
         d="m 1015.9,586.2 c 0,8.8 -4.7,13.5 -12.2,13.5 -7.3,0 -12.1,-4.7 -12.1,-13.5 v -30.1 h -13.8 v 32 c 0,15 9.2,23.3 21.9,23.3 6.8,0 12.8,-3 16.3,-7.6 v 6.9 h 13.9 V 556.1 H 1016 Z"
         id="path196" />
      <path
         d="m 1059.4,542.6 h -13.9 v 13.5 h -6.5 v 11.3 h 6.5 v 26.3 c 0,12.5 7,17 17.4,17 h 8.7 v -11.6 h -6.4 c -4.3,0 -5.8,-1.6 -5.8,-5.2 v -26.4 h 12.2 v -11.3 h -12.2 z"
         id="path198" />
      <path
         d="m 1112.3,555.3 c -7.3,0 -13.4,3 -17,7.6 v -25.1 h -13.8 v 72.9 h 13.8 v -30.2 c 0,-8.8 4.8,-13.5 12.3,-13.5 7.3,0 12.1,4.7 12.1,13.5 v 30.2 h 13.8 v -32 c 0.1,-15.1 -8.9,-23.4 -21.2,-23.4 z"
         id="path200" />
      <path
         d="m 1185.6,553.9 c 0,-6.1 2.3,-8.3 9,-8.1 v -11.6 c -15.4,-0.4 -23,5.8 -23,19.2 v 2.8 h -6.2 v 11.3 h 6.2 v 43.3 h 14 v -43.3 h 9.6 v -11.3 h -9.6 z"
         id="path202" />
      <rect
         x="1204.2"
         y="537.79999"
         width="13.8"
         height="72.900002"
         id="rect204" />
      <path
         d="m 1256.2,555.2 c -15.8,0 -28.1,10.9 -28.1,28.2 0,17.1 11.9,28.2 27.7,28.2 15.9,0 28.5,-11 28.5,-28.2 0,-17.2 -12.3,-28.2 -28.1,-28.2 z m -0.4,44.4 c -7.4,0 -13.7,-5.3 -13.7,-16.2 0,-10.9 6.6,-16.2 13.9,-16.2 7.3,0 14.1,5.2 14.1,16.2 0,10.9 -7,16.2 -14.3,16.2 z"
         id="path206" />
      <path
         d="m 1308.2,564.6 v -8.5 h -13.8 v 54.6 h 13.8 v -27.2 c 0,-10.6 4.9,-13.7 13.1,-13.7 h 3.7 v -14.5 c -7.6,0 -13.3,3.7 -16.8,9.3 z"
         id="path208" />
      <rect
         x="1334.2"
         y="556.09998"
         width="13.8"
         height="54.599998"
         id="rect210" />
      <path
         d="m 1341.2,533.5 c -4.9,0 -8.5,3.6 -8.5,8.1 0,4.5 3.6,8.1 8.5,8.1 4.8,0 8.5,-3.6 8.5,-8.1 0,-4.6 -3.6,-8.1 -8.5,-8.1 z"
         id="path212" />
      <path
         d="m 1400.9,563.7 c -3.7,-5.1 -10.6,-8.5 -17.8,-8.5 -14,0 -25,10.9 -25,28 0,17 11,28.4 24.9,28.4 8.6,0 14.7,-3.9 17.9,-9 v 8.1 h 14 v -72.9 h -14 z m -14.3,35.8 c -7.4,0 -14.4,-5.9 -14.4,-16.3 0,-10.3 7,-15.9 14.4,-15.9 7.6,0 14.5,5.7 14.5,16.1 -0.1,10.4 -6.9,16.1 -14.5,16.1 z"
         id="path214" />
      <path
         d="m 1467.9,556.1 v 7.8 c -3.2,-4.5 -9.3,-8.7 -18,-8.7 -13.9,0 -24.9,10.9 -24.9,28 0,17 11,28.4 24.8,28.4 8.7,0 14.9,-4.1 18.1,-8.9 v 8 h 13.9 v -54.6 z m -14.5,43.4 c -7.4,0 -14.4,-5.9 -14.4,-16.3 0,-10.3 7,-15.9 14.4,-15.9 7.6,0 14.5,5.7 14.5,16.1 0,10.4 -6.9,16.1 -14.5,16.1 z"
         id="path216" />
    </g>
  </g>
</svg>
